<mxfile host="app.diagrams.net" modified="2023-12-08T20:38:19.934Z" agent="Mozilla/5.0 (Windows NT 10.0; Win64; x64) AppleWebKit/537.36 (KHTML, like Gecko) Chrome/120.0.0.0 Safari/537.36" etag="HsyAymZsqp9xJHazPfjh" version="21.7.4" type="github">
  <diagram id="a45cf8ec-cd66-6f27-3ac3-be6e809c9e4a" name="Page-1">
    <mxGraphModel dx="978" dy="563" grid="1" gridSize="10" guides="1" tooltips="1" connect="1" arrows="1" fold="1" page="1" pageScale="1" pageWidth="827" pageHeight="1169" background="none" math="0" shadow="0">
      <root>
        <mxCell id="0" />
        <mxCell id="1" parent="0" />
        <mxCell id="8DQiPRiBLxZKH11KWnCO-185" style="edgeStyle=orthogonalEdgeStyle;rounded=0;orthogonalLoop=1;jettySize=auto;html=1;strokeColor=default;shape=link;" edge="1" parent="1" source="8DQiPRiBLxZKH11KWnCO-184" target="8DQiPRiBLxZKH11KWnCO-183">
          <mxGeometry relative="1" as="geometry" />
        </mxCell>
        <mxCell id="8DQiPRiBLxZKH11KWnCO-172" value="Caixa1" style="verticalLabelPosition=bottom;sketch=0;aspect=fixed;html=1;verticalAlign=top;strokeColor=none;align=center;outlineConnect=0;shape=mxgraph.citrix.desktop;" vertex="1" parent="1">
          <mxGeometry x="760" y="10" width="39.5" height="43.5" as="geometry" />
        </mxCell>
        <mxCell id="8DQiPRiBLxZKH11KWnCO-174" value="Caixa2" style="verticalLabelPosition=bottom;sketch=0;aspect=fixed;html=1;verticalAlign=top;strokeColor=none;align=center;outlineConnect=0;shape=mxgraph.citrix.desktop;" vertex="1" parent="1">
          <mxGeometry x="755.5" y="80" width="39" height="42.95" as="geometry" />
        </mxCell>
        <mxCell id="8DQiPRiBLxZKH11KWnCO-175" value="Balcão1" style="verticalLabelPosition=bottom;sketch=0;aspect=fixed;html=1;verticalAlign=top;strokeColor=none;align=center;outlineConnect=0;shape=mxgraph.citrix.desktop;" vertex="1" parent="1">
          <mxGeometry x="754.75" y="150" width="39.5" height="43.5" as="geometry" />
        </mxCell>
        <mxCell id="8DQiPRiBLxZKH11KWnCO-176" value="Balcão2" style="verticalLabelPosition=bottom;sketch=0;aspect=fixed;html=1;verticalAlign=top;strokeColor=none;align=center;outlineConnect=0;shape=mxgraph.citrix.desktop;" vertex="1" parent="1">
          <mxGeometry x="760" y="220" width="39" height="42.95" as="geometry" />
        </mxCell>
        <mxCell id="8DQiPRiBLxZKH11KWnCO-177" value="Balcão3" style="verticalLabelPosition=bottom;sketch=0;aspect=fixed;html=1;verticalAlign=top;strokeColor=none;align=center;outlineConnect=0;shape=mxgraph.citrix.desktop;" vertex="1" parent="1">
          <mxGeometry x="760.5" y="290" width="39" height="42.95" as="geometry" />
        </mxCell>
        <mxCell id="8DQiPRiBLxZKH11KWnCO-178" value="Impressora &lt;br&gt;balcão" style="verticalLabelPosition=bottom;sketch=0;aspect=fixed;html=1;verticalAlign=top;strokeColor=none;align=center;outlineConnect=0;shape=mxgraph.citrix.printer;" vertex="1" parent="1">
          <mxGeometry x="760" y="360" width="40" height="40" as="geometry" />
        </mxCell>
        <mxCell id="8DQiPRiBLxZKH11KWnCO-179" value="SAT1" style="verticalLabelPosition=bottom;sketch=0;aspect=fixed;html=1;verticalAlign=top;strokeColor=none;align=center;outlineConnect=0;shape=mxgraph.citrix.hq_enterprise;" vertex="1" parent="1">
          <mxGeometry x="760.5" y="440" width="39" height="37.3" as="geometry" />
        </mxCell>
        <mxCell id="8DQiPRiBLxZKH11KWnCO-180" value="SAT2" style="verticalLabelPosition=bottom;sketch=0;aspect=fixed;html=1;verticalAlign=top;strokeColor=none;align=center;outlineConnect=0;shape=mxgraph.citrix.hq_enterprise;" vertex="1" parent="1">
          <mxGeometry x="759" y="500" width="40" height="38.26" as="geometry" />
        </mxCell>
        <mxCell id="8DQiPRiBLxZKH11KWnCO-181" value="Alarme" style="verticalLabelPosition=bottom;sketch=0;aspect=fixed;html=1;verticalAlign=top;strokeColor=none;align=center;outlineConnect=0;shape=mxgraph.citrix.hq_enterprise;" vertex="1" parent="1">
          <mxGeometry x="758" y="560" width="42" height="40.17" as="geometry" />
        </mxCell>
        <mxCell id="8DQiPRiBLxZKH11KWnCO-188" style="edgeStyle=orthogonalEdgeStyle;rounded=0;orthogonalLoop=1;jettySize=auto;html=1;" edge="1" parent="1" source="8DQiPRiBLxZKH11KWnCO-183" target="8DQiPRiBLxZKH11KWnCO-172">
          <mxGeometry relative="1" as="geometry">
            <Array as="points">
              <mxPoint x="660" y="257" />
              <mxPoint x="660" y="37" />
            </Array>
          </mxGeometry>
        </mxCell>
        <mxCell id="8DQiPRiBLxZKH11KWnCO-189" style="edgeStyle=orthogonalEdgeStyle;rounded=0;orthogonalLoop=1;jettySize=auto;html=1;" edge="1" parent="1" source="8DQiPRiBLxZKH11KWnCO-183" target="8DQiPRiBLxZKH11KWnCO-174">
          <mxGeometry relative="1" as="geometry">
            <Array as="points">
              <mxPoint x="660" y="257" />
              <mxPoint x="660" y="100" />
            </Array>
          </mxGeometry>
        </mxCell>
        <mxCell id="8DQiPRiBLxZKH11KWnCO-190" style="edgeStyle=orthogonalEdgeStyle;rounded=0;orthogonalLoop=1;jettySize=auto;html=1;" edge="1" parent="1" source="8DQiPRiBLxZKH11KWnCO-183" target="8DQiPRiBLxZKH11KWnCO-175">
          <mxGeometry relative="1" as="geometry">
            <Array as="points">
              <mxPoint x="660" y="257" />
              <mxPoint x="660" y="180" />
            </Array>
          </mxGeometry>
        </mxCell>
        <mxCell id="8DQiPRiBLxZKH11KWnCO-191" style="edgeStyle=orthogonalEdgeStyle;rounded=0;orthogonalLoop=1;jettySize=auto;html=1;" edge="1" parent="1" source="8DQiPRiBLxZKH11KWnCO-183" target="8DQiPRiBLxZKH11KWnCO-176">
          <mxGeometry relative="1" as="geometry">
            <Array as="points">
              <mxPoint x="660" y="257" />
              <mxPoint x="660" y="242" />
            </Array>
          </mxGeometry>
        </mxCell>
        <mxCell id="8DQiPRiBLxZKH11KWnCO-192" style="edgeStyle=orthogonalEdgeStyle;rounded=0;orthogonalLoop=1;jettySize=auto;html=1;" edge="1" parent="1" source="8DQiPRiBLxZKH11KWnCO-183" target="8DQiPRiBLxZKH11KWnCO-177">
          <mxGeometry relative="1" as="geometry">
            <Array as="points">
              <mxPoint x="660" y="257" />
              <mxPoint x="660" y="310" />
            </Array>
          </mxGeometry>
        </mxCell>
        <mxCell id="8DQiPRiBLxZKH11KWnCO-193" style="edgeStyle=orthogonalEdgeStyle;rounded=0;orthogonalLoop=1;jettySize=auto;html=1;" edge="1" parent="1" source="8DQiPRiBLxZKH11KWnCO-183" target="8DQiPRiBLxZKH11KWnCO-178">
          <mxGeometry relative="1" as="geometry">
            <Array as="points">
              <mxPoint x="660" y="257" />
              <mxPoint x="660" y="385" />
            </Array>
          </mxGeometry>
        </mxCell>
        <mxCell id="8DQiPRiBLxZKH11KWnCO-194" style="edgeStyle=orthogonalEdgeStyle;rounded=0;orthogonalLoop=1;jettySize=auto;html=1;" edge="1" parent="1" source="8DQiPRiBLxZKH11KWnCO-183" target="8DQiPRiBLxZKH11KWnCO-179">
          <mxGeometry relative="1" as="geometry">
            <Array as="points">
              <mxPoint x="660" y="257" />
              <mxPoint x="660" y="450" />
            </Array>
          </mxGeometry>
        </mxCell>
        <mxCell id="8DQiPRiBLxZKH11KWnCO-195" style="edgeStyle=orthogonalEdgeStyle;rounded=0;orthogonalLoop=1;jettySize=auto;html=1;" edge="1" parent="1" source="8DQiPRiBLxZKH11KWnCO-183" target="8DQiPRiBLxZKH11KWnCO-180">
          <mxGeometry relative="1" as="geometry">
            <Array as="points">
              <mxPoint x="660" y="257" />
              <mxPoint x="660" y="510" />
            </Array>
          </mxGeometry>
        </mxCell>
        <mxCell id="8DQiPRiBLxZKH11KWnCO-196" style="edgeStyle=orthogonalEdgeStyle;rounded=0;orthogonalLoop=1;jettySize=auto;html=1;" edge="1" parent="1" source="8DQiPRiBLxZKH11KWnCO-183" target="8DQiPRiBLxZKH11KWnCO-181">
          <mxGeometry relative="1" as="geometry">
            <Array as="points">
              <mxPoint x="660" y="257" />
              <mxPoint x="660" y="580" />
            </Array>
          </mxGeometry>
        </mxCell>
        <mxCell id="8DQiPRiBLxZKH11KWnCO-198" style="edgeStyle=orthogonalEdgeStyle;rounded=0;orthogonalLoop=1;jettySize=auto;html=1;dashed=1;" edge="1" parent="1" source="8DQiPRiBLxZKH11KWnCO-183" target="8DQiPRiBLxZKH11KWnCO-197">
          <mxGeometry relative="1" as="geometry">
            <Array as="points">
              <mxPoint x="640" y="257" />
              <mxPoint x="640" y="684" />
            </Array>
          </mxGeometry>
        </mxCell>
        <mxCell id="8DQiPRiBLxZKH11KWnCO-183" value="Switch Balcão" style="verticalLabelPosition=bottom;sketch=0;aspect=fixed;html=1;verticalAlign=top;strokeColor=none;align=center;outlineConnect=0;shape=mxgraph.citrix.switch;" vertex="1" parent="1">
          <mxGeometry x="530" y="236.23" width="92" height="41.5" as="geometry" />
        </mxCell>
        <mxCell id="8DQiPRiBLxZKH11KWnCO-206" style="edgeStyle=orthogonalEdgeStyle;rounded=0;orthogonalLoop=1;jettySize=auto;html=1;" edge="1" parent="1" source="8DQiPRiBLxZKH11KWnCO-184" target="8DQiPRiBLxZKH11KWnCO-199">
          <mxGeometry relative="1" as="geometry">
            <Array as="points">
              <mxPoint x="330" y="257" />
              <mxPoint x="330" y="32" />
            </Array>
          </mxGeometry>
        </mxCell>
        <mxCell id="8DQiPRiBLxZKH11KWnCO-207" style="edgeStyle=orthogonalEdgeStyle;rounded=0;orthogonalLoop=1;jettySize=auto;html=1;" edge="1" parent="1" source="8DQiPRiBLxZKH11KWnCO-184" target="8DQiPRiBLxZKH11KWnCO-200">
          <mxGeometry relative="1" as="geometry">
            <Array as="points">
              <mxPoint x="330" y="257" />
              <mxPoint x="330" y="102" />
            </Array>
          </mxGeometry>
        </mxCell>
        <mxCell id="8DQiPRiBLxZKH11KWnCO-208" style="edgeStyle=orthogonalEdgeStyle;rounded=0;orthogonalLoop=1;jettySize=auto;html=1;" edge="1" parent="1" source="8DQiPRiBLxZKH11KWnCO-184" target="8DQiPRiBLxZKH11KWnCO-201">
          <mxGeometry relative="1" as="geometry">
            <Array as="points">
              <mxPoint x="330" y="257" />
              <mxPoint x="330" y="172" />
            </Array>
          </mxGeometry>
        </mxCell>
        <mxCell id="8DQiPRiBLxZKH11KWnCO-209" style="edgeStyle=orthogonalEdgeStyle;rounded=0;orthogonalLoop=1;jettySize=auto;html=1;" edge="1" parent="1" source="8DQiPRiBLxZKH11KWnCO-184" target="8DQiPRiBLxZKH11KWnCO-202">
          <mxGeometry relative="1" as="geometry">
            <Array as="points">
              <mxPoint x="330" y="257" />
              <mxPoint x="330" y="268" />
            </Array>
          </mxGeometry>
        </mxCell>
        <mxCell id="8DQiPRiBLxZKH11KWnCO-210" style="edgeStyle=orthogonalEdgeStyle;rounded=0;orthogonalLoop=1;jettySize=auto;html=1;" edge="1" parent="1" source="8DQiPRiBLxZKH11KWnCO-184" target="8DQiPRiBLxZKH11KWnCO-203">
          <mxGeometry relative="1" as="geometry">
            <Array as="points">
              <mxPoint x="330" y="257" />
              <mxPoint x="330" y="372" />
            </Array>
          </mxGeometry>
        </mxCell>
        <mxCell id="8DQiPRiBLxZKH11KWnCO-211" style="edgeStyle=orthogonalEdgeStyle;rounded=0;orthogonalLoop=1;jettySize=auto;html=1;" edge="1" parent="1" source="8DQiPRiBLxZKH11KWnCO-184" target="8DQiPRiBLxZKH11KWnCO-204">
          <mxGeometry relative="1" as="geometry">
            <Array as="points">
              <mxPoint x="330" y="257" />
              <mxPoint x="330" y="494" />
            </Array>
          </mxGeometry>
        </mxCell>
        <mxCell id="8DQiPRiBLxZKH11KWnCO-212" style="edgeStyle=orthogonalEdgeStyle;rounded=0;orthogonalLoop=1;jettySize=auto;html=1;" edge="1" parent="1" source="8DQiPRiBLxZKH11KWnCO-184" target="8DQiPRiBLxZKH11KWnCO-205">
          <mxGeometry relative="1" as="geometry">
            <Array as="points">
              <mxPoint x="330" y="257" />
              <mxPoint x="330" y="585" />
            </Array>
          </mxGeometry>
        </mxCell>
        <mxCell id="8DQiPRiBLxZKH11KWnCO-184" value="Switch Escritório" style="verticalLabelPosition=bottom;sketch=0;aspect=fixed;html=1;verticalAlign=top;strokeColor=none;align=center;outlineConnect=0;shape=mxgraph.citrix.switch;" vertex="1" parent="1">
          <mxGeometry x="368" y="236.23" width="92" height="41.5" as="geometry" />
        </mxCell>
        <mxCell id="8DQiPRiBLxZKH11KWnCO-197" value="Internet &lt;br&gt;Vivo" style="verticalLabelPosition=bottom;sketch=0;aspect=fixed;html=1;verticalAlign=top;strokeColor=none;align=center;outlineConnect=0;shape=mxgraph.citrix.web_server;" vertex="1" parent="1">
          <mxGeometry x="760" y="650" width="57.5" height="67.65" as="geometry" />
        </mxCell>
        <mxCell id="8DQiPRiBLxZKH11KWnCO-199" value="Escritório 1&lt;br&gt;" style="verticalLabelPosition=bottom;sketch=0;aspect=fixed;html=1;verticalAlign=top;strokeColor=none;align=center;outlineConnect=0;shape=mxgraph.citrix.desktop;" vertex="1" parent="1">
          <mxGeometry x="100" y="10" width="39.5" height="43.5" as="geometry" />
        </mxCell>
        <mxCell id="8DQiPRiBLxZKH11KWnCO-200" value="Escritório 2" style="verticalLabelPosition=bottom;sketch=0;aspect=fixed;html=1;verticalAlign=top;strokeColor=none;align=center;outlineConnect=0;shape=mxgraph.citrix.desktop;" vertex="1" parent="1">
          <mxGeometry x="100" y="80" width="39.5" height="43.5" as="geometry" />
        </mxCell>
        <mxCell id="8DQiPRiBLxZKH11KWnCO-201" value="Escritório&amp;nbsp;&lt;br&gt;Superior" style="verticalLabelPosition=bottom;sketch=0;aspect=fixed;html=1;verticalAlign=top;strokeColor=none;align=center;outlineConnect=0;shape=mxgraph.citrix.desktop;" vertex="1" parent="1">
          <mxGeometry x="100" y="150" width="39.5" height="43.5" as="geometry" />
        </mxCell>
        <mxCell id="8DQiPRiBLxZKH11KWnCO-202" value="Estoque" style="verticalLabelPosition=bottom;sketch=0;aspect=fixed;html=1;verticalAlign=top;strokeColor=none;align=center;outlineConnect=0;shape=mxgraph.citrix.desktop;" vertex="1" parent="1">
          <mxGeometry x="100" y="246.5" width="39.5" height="43.5" as="geometry" />
        </mxCell>
        <mxCell id="8DQiPRiBLxZKH11KWnCO-203" value="Servidor&lt;br&gt;(tem dois cabos nele)" style="verticalLabelPosition=bottom;sketch=0;aspect=fixed;html=1;verticalAlign=top;strokeColor=none;align=center;outlineConnect=0;shape=mxgraph.citrix.database_server;" vertex="1" parent="1">
          <mxGeometry x="90" y="335" width="66.67" height="75" as="geometry" />
        </mxCell>
        <mxCell id="8DQiPRiBLxZKH11KWnCO-204" value="Internet &lt;br&gt;Claro" style="verticalLabelPosition=bottom;sketch=0;aspect=fixed;html=1;verticalAlign=top;strokeColor=none;align=center;outlineConnect=0;shape=mxgraph.citrix.web_server;" vertex="1" parent="1">
          <mxGeometry x="91" y="460" width="57.5" height="67.65" as="geometry" />
        </mxCell>
        <mxCell id="8DQiPRiBLxZKH11KWnCO-205" value="Sistema&lt;br&gt;Monitoramento" style="verticalLabelPosition=bottom;sketch=0;aspect=fixed;html=1;verticalAlign=top;strokeColor=none;align=center;outlineConnect=0;shape=mxgraph.citrix.hq_enterprise;" vertex="1" parent="1">
          <mxGeometry x="100" y="566" width="39" height="37.3" as="geometry" />
        </mxCell>
      </root>
    </mxGraphModel>
  </diagram>
</mxfile>
